<svg xmlns="http://www.w3.org/2000/svg" viewBox="0 0 1479.29 1243"><defs><style>.cls-1{fill:#fff;}</style></defs><g id="Layer_6" data-name="Layer 6"><path d="M283.55,937.32q-24.71-24.45-24.71-69.89t24.32-69.9q24.32-24.45,69.49-24.45a142.61,142.61,0,0,1,33.49,3.72q15.41,3.74,26,10.63c1.6,1.07,2.39,2.22,2.39,3.46a7.29,7.29,0,0,1-1.33,3.72l-7.44,12.76c-1.06,1.59-2,2.39-2.92,2.39a10.26,10.26,0,0,1-3.72-1.33q-16.74-10.09-42.79-10.1-30,0-47,17.27t-17,51.83q0,35.07,17.54,52.22t47.31,17.14q27.63,0,45.44-10.37a11,11,0,0,1,3.46-1.32c1.06,0,2.12.79,3.19,2.39l8.24,13.82a6.25,6.25,0,0,1,.79,2.66q0,1.59-2.92,3.45-20.47,14.36-61.92,14.35Q308.27,961.77,283.55,937.32Z"/><path d="M437,946q-15.42-15.81-15.42-44.52,0-22.32,9.84-39.46a66.21,66.21,0,0,1,28-26.44q18.21-9.3,42.39-9.31,33.75,0,57.14,15.95V950.61q0,4-1.73,5.58c-1.15,1.06-3.15,1.59-6,1.59H536.61a6.79,6.79,0,0,1-4.39-1.19,6.36,6.36,0,0,1-2-3.86l-2.13-10.36a48,48,0,0,1-20.33,14.75q-12.09,4.65-29.37,4.65Q452.36,961.77,437,946ZM516,929.35a26.12,26.12,0,0,0,10.76-21.79V855.73a43.89,43.89,0,0,0-11.29-4.12,70,70,0,0,0-14-1.19q-21,0-33.76,13.29T455,900.38q0,19.14,8.9,28.17t27.24,9A39.78,39.78,0,0,0,516,929.35Z"/><path d="M581.3,955.39Q579,953,579,948.22V786.9q0-5,2.26-7.44c1.51-1.59,4-2.39,7.58-2.39H603q5.31,0,7.71,2.39t2.39,7.44V948.22c0,3.19-.76,5.58-2.26,7.17s-4.12,2.39-7.84,2.39H588.88C585.33,957.78,582.81,957,581.3,955.39Z"/><path d="M642.74,946q-15.42-15.81-15.41-44.52,0-22.32,9.83-39.46a66.23,66.23,0,0,1,28-26.44q18.19-9.3,42.39-9.31,33.74,0,57.14,15.95V950.61q0,4-1.73,5.58t-6,1.59H742.4a6.77,6.77,0,0,1-4.38-1.19,6.42,6.42,0,0,1-2-3.86l-2.12-10.36a48.09,48.09,0,0,1-20.33,14.75q-12.11,4.65-29.37,4.65Q658.15,961.77,642.74,946Zm79.07-16.61a26.12,26.12,0,0,0,10.76-21.79V855.73a44,44,0,0,0-11.3-4.12,69.92,69.92,0,0,0-13.95-1.19q-21,0-33.75,13.29t-12.76,36.67q0,19.14,8.91,28.17t27.24,9A39.78,39.78,0,0,0,721.81,929.35Z"/><path d="M787.23,955.39q-2.38-2.39-2.39-7.17V837.4q0-4,1.33-5.58t5.58-1.6h14.09a6.25,6.25,0,0,1,4.25,1.2,6.16,6.16,0,0,1,1.59,4.12l.8,11.16a56.07,56.07,0,0,1,17.67-15.15q10-5.31,23.79-5.32,11.68,0,20.33,5.19a30.11,30.11,0,0,1,12.62,15.28q14.61-20.46,42.26-20.47,18.86,0,29.89,11.43t11,34v76.54q0,4.78-2.26,7.17c-1.5,1.6-4.11,2.39-7.84,2.39H948.28c-3.55,0-6.11-.79-7.71-2.39s-2.39-4-2.39-7.17V873.54q0-12.22-5.18-17.54t-15.55-5.32q-10.89,0-17.67,7.18T893,877.26v71c0,3.19-.79,5.58-2.39,7.17s-4.16,2.39-7.71,2.39H872c-3.55,0-6.11-.79-7.71-2.39s-2.39-4-2.39-7.17v-76q0-11.16-4.65-16.34t-14.75-5.19q-11.43,0-18.6,7.58t-7.18,19.8v70.16c0,3.19-.76,5.58-2.26,7.17s-4.12,2.39-7.84,2.39H794.94C791.39,957.78,788.83,957,787.23,955.39Z"/><path d="M998.85,946q-15.4-15.81-15.41-44.52,0-22.32,9.83-39.46a66.29,66.29,0,0,1,28-26.44q18.2-9.3,42.39-9.31,33.75,0,57.14,15.95V950.61q0,4-1.73,5.58t-6,1.59h-14.62a6.77,6.77,0,0,1-4.38-1.19,6.36,6.36,0,0,1-2-3.86L1090,942.37a48,48,0,0,1-20.33,14.75q-12.09,4.65-29.37,4.65Q1014.27,961.77,998.85,946Zm79.07-16.61a26.12,26.12,0,0,0,10.76-21.79V855.73a44,44,0,0,0-11.29-4.12,70.1,70.1,0,0,0-14-1.19q-21,0-33.75,13.29t-12.75,36.67q0,19.14,8.9,28.17t27.24,9A39.78,39.78,0,0,0,1077.92,929.35Z"/><path d="M1143.34,955.39Q1141,953,1141,948.22V837.4q0-4,1.33-5.58c.88-1.07,2.75-1.6,5.58-1.6H1163a6.24,6.24,0,0,1,4.25,1.2,6.11,6.11,0,0,1,1.6,4.12l.79,9.56q15.69-18.86,41.2-18.87,11.69,0,17.8,4a4.73,4.73,0,0,1,2,2.26,4.38,4.38,0,0,1-.14,2.79l-4.78,16c-.53,1.77-1.51,2.65-2.92,2.65l-2.13-.53a34.72,34.72,0,0,0-14.62-2.92q-13.55,0-22.32,7.57t-8.77,20.6v69.63c0,3.19-.76,5.58-2.26,7.17s-4.12,2.39-7.84,2.39h-13.82C1147.5,957.78,1144.94,957,1143.34,955.39Z"/><path d="M939.35,657c-1.38-17.35-12.66-35-31.76-49.77-6.84-5.27-11.15-9.2-11.53-12.48-.54-4.69,6-13.38,11.73-20.43,23.33-28.62,28.12-65.64,14.25-110-11.29-36.16-32.54-69.88-46.6-92.19l-3.92-6.23c2.42-1.89,5.14-3.88,8-5.95,13.78-10.08,29.39-21.52,31.28-36,.84-6.38-1.08-12.52-5.7-18.24C822.17,202.9,766.28,183.65,740.35,181.32l-.71-.06-.7.06c-25.93,2.33-81.82,21.58-164.71,124.4-4.62,5.72-6.54,11.86-5.7,18.24,1.89,14.47,17.5,25.91,31.28,36,2.82,2.07,5.54,4.06,8,5.95l-3.92,6.23c-14.06,22.31-35.31,56-46.6,92.19-13.87,44.4-9.08,81.42,14.25,110,5.74,7,12.27,15.74,11.73,20.43-.38,3.28-4.69,7.21-11.53,12.48C552.6,622,541.32,639.69,539.94,657c-.89,11.32,2.58,21.49,10,29.42,9.59,10.18,21.41,15.64,34.18,15.78,16.38.19,33.62-8.19,51.34-24.9-14.7,26.14-6.06,52.35,11.83,66.19,16.5,12.76,42.68,15.61,61.18-8.28C721.14,719,728,698,733,682.75c2-6.15,4.6-14.09,6.67-18,2.08,3.88,4.68,11.82,6.68,18,5,15.28,11.83,36.2,24.45,52.5,10,12.85,22.12,18,33.81,18A45.3,45.3,0,0,0,832,743.53c17.89-13.84,26.53-40,11.83-66.19,17.54,16.54,34.61,24.91,50.82,24.91h.52c12.77-.14,24.59-5.6,34.18-15.78C936.77,678.53,940.24,668.36,939.35,657Zm-79.64-.67c-44.2-45.79-74.87-22.89-43.81,24.5,27.8,42.39-19.31,70.18-40.65,16.9-13.9-34.72-13.93-66.32-35.65-66.49-21.71.17-21.75,31.77-35.65,66.49-21.34,53.28-68.44,25.49-40.65-16.9,31.06-47.39.39-70.29-43.81-24.5-41.81,43.31-69.53-.29-41.69-22.92,27-21.89,42.34-37.4,18.28-66.28C524.29,481,657.34,338.24,681.93,311.69,668.16,315.63,634.18,342,627.3,350c-10.72-8.36-43.44-23-33.82-35.49C676.35,206.68,739.6,196.23,739.6,196.23s63.25,10.45,146.12,118.25c9.62,12.51-23.1,27.13-33.82,35.49-6.88-8-40.86-34.34-54.63-38.28C821.86,338.24,954.91,481,883.13,567.17c-24.07,28.88-8.68,44.39,18.27,66.28C929.24,656.08,901.52,699.68,859.71,656.37Z"/><circle class="cls-1" cx="669.51" cy="523.75" r="51.35"/><path d="M669.51,478.4a45.36,45.36,0,1,1-45.35,45.35,45.4,45.4,0,0,1,45.35-45.35m0-12a57.36,57.36,0,1,0,57.35,57.35,57.35,57.35,0,0,0-57.35-57.35Z"/><circle cx="669.51" cy="523.75" r="37.89"/><circle class="cls-1" cx="809.78" cy="523.75" r="51.35"/><path d="M809.78,478.4a45.36,45.36,0,1,1-45.35,45.35,45.4,45.4,0,0,1,45.35-45.35m0-12a57.36,57.36,0,1,0,57.35,57.35,57.35,57.35,0,0,0-57.35-57.35Z"/><circle cx="809.78" cy="523.75" r="37.89"/><path class="cls-1" d="M668.38,494.47s-27.66,2.93-29.29,29.28Z"/><path class="cls-1" d="M811.08,494.47s-27.66,2.93-29.28,29.28Z"/></g></svg>