<svg id="BaseShape" xmlns="http://www.w3.org/2000/svg" viewBox="0 0 681.51 919.86"><defs><style>.cls-1{fill:#ff5567;}.cls-2{fill:#fff;}</style></defs><path d="M542.32,632.15c-1.37-17.35-12.65-35-31.75-49.77-6.84-5.28-11.15-9.21-11.53-12.48-.54-4.7,6-13.39,11.73-20.44,23.33-28.62,28.12-65.64,14.25-110-11.29-36.15-32.54-69.87-46.61-92.19L474.5,341c2.41-1.89,5.14-3.88,8-5.94,13.77-10.09,29.39-21.52,31.28-36,.84-6.38-1.08-12.52-5.7-18.25C425.14,178,369.26,158.75,343.32,156.43l-.7-.07-.7.07C316,158.75,260.1,178,177.21,280.82c-4.62,5.73-6.54,11.87-5.71,18.25,1.9,14.47,17.51,25.9,31.29,36,2.82,2.06,5.54,4.05,8,5.94-1.23,2-2.55,4.07-3.91,6.23-14.06,22.32-35.31,56-46.6,92.19-13.88,44.4-9.08,81.42,14.24,110,5.75,7,12.28,15.74,11.74,20.44-.38,3.27-4.69,7.2-11.53,12.48-19.11,14.74-30.39,32.42-31.76,49.77-.9,11.31,2.58,21.48,10,29.41,9.59,10.19,21.42,15.65,34.19,15.79,16.38.18,33.61-8.19,51.33-24.91-14.69,26.14-6,52.35,11.84,66.19,16.49,12.77,42.68,15.62,61.18-8.28,12.61-16.3,19.45-37.22,24.44-52.5,2-6.14,4.6-14.08,6.68-18,2.08,3.89,4.67,11.83,6.68,18,5,15.28,11.83,36.2,24.45,52.5,9.95,12.85,22.11,18,33.8,18a45.34,45.34,0,0,0,27.38-9.69c17.89-13.83,26.53-40,11.83-66.19,17.53,16.54,34.6,24.91,50.81,24.91h.52c12.78-.14,24.6-5.6,34.19-15.79C539.75,653.63,543.22,643.46,542.32,632.15Zm-239.23-436c21.31-13.24,35.64-17.26,39.53-18.18,3.92.93,18.24,5,39.53,18.18,42.05,26.13,78.37,67.38,101.44,97.39.46.6.42.83.38,1.05-.92,5-14.74,13.57-22.17,18.17-2.22,1.37-4.28,2.65-6.14,3.86-11.93-11-40.23-32.27-53.58-36.08l-22.35-6.39,16.18,17.47c12.73,13.74,51.46,55.55,78.17,104.45,33,60.33,35.34,108.12,7.07,142-10,12-14.33,22.84-13.32,33.22,1.55,15.95,15,28.07,32.49,42.26,6.71,5.46,9.9,12.78,8.53,19.6a12.12,12.12,0,0,1-8.54,9.64c-4.12,1.21-15.57,2.07-32.9-15.88-28.28-29.29-49.49-30.83-59.92-22.5-9.55,7.63-13,26.1,6,55.07,9,13.75,8.6,24.78,5.22,30.51a10.91,10.91,0,0,1-10.52,5.59c-3.34-.26-14.93-2.83-23.88-25.17-4-10-6.88-19.93-9.43-28.71-6.48-22.38-12.08-41.71-32.21-41.87h-.1c-20.12.16-25.72,19.49-32.21,41.87a301,301,0,0,1-9.42,28.71c-8.95,22.34-20.55,24.91-23.89,25.17A10.92,10.92,0,0,1,266.54,690c-3.39-5.73-3.8-16.76,5.21-30.51,19-29,15.56-47.44,6-55.07-10.42-8.33-31.64-6.79-59.92,22.5-17.32,17.95-28.78,17.09-32.9,15.88a12.09,12.09,0,0,1-8.53-9.64c-1.38-6.82,1.81-14.14,8.52-19.6,17.47-14.19,31-26.31,32.5-42.26,1-10.38-3.35-21.25-13.33-33.22-28.26-33.92-25.88-81.71,7.08-142,26.7-48.89,65.43-90.7,78.16-104.45l16.18-17.47-22.34,6.39c-13.35,3.81-41.65,25.08-53.59,36.08-1.86-1.21-3.92-2.49-6.14-3.86-7.43-4.6-21.25-13.16-22.16-18.17-.05-.22-.09-.45.37-1.05C224.72,263.54,261,222.29,303.09,196.16Z"/><path id="InShape" class="cls-1" d="M504.38,606.54c-26.95-21.89-42.34-37.4-18.28-66.28,71.79-86.14-61.26-228.93-85.85-255.48,13.76,3.94,47.75,30.29,54.63,38.28,10.72-8.36,43.44-23,33.82-35.49-82.87-107.8-146.12-118.24-146.12-118.24s-63.26,10.44-146.12,118.24c-9.62,12.51,23.1,27.13,33.81,35.49,6.89-8,40.87-34.34,54.64-38.28-24.59,26.55-157.64,169.34-85.86,255.48,24.07,28.88,8.67,44.39-18.27,66.28-27.84,22.63-.12,66.24,41.69,22.92,44.2-45.79,74.87-22.89,43.8,24.5-27.79,42.39,19.32,70.18,40.66,16.9,13.9-34.72,13.93-66.32,35.65-66.49,21.71.17,21.75,31.77,35.65,66.49,21.34,53.28,68.44,25.49,40.65-16.9-31.06-47.39-.39-70.29,43.81-24.5C504.5,672.78,532.22,629.17,504.38,606.54Z"/><circle class="cls-2" cx="272.49" cy="498.86" r="51.35"/><path d="M272.49,453.51a45.35,45.35,0,1,1-45.35,45.35,45.4,45.4,0,0,1,45.35-45.35m0-12a57.35,57.35,0,1,0,57.35,57.35,57.34,57.34,0,0,0-57.35-57.35Z"/><circle cx="272.49" cy="498.86" r="37.89"/><circle class="cls-2" cx="412.76" cy="498.86" r="51.35"/><path d="M412.76,453.51a45.35,45.35,0,1,1-45.35,45.35,45.4,45.4,0,0,1,45.35-45.35m0-12a57.35,57.35,0,1,0,57.35,57.35,57.34,57.34,0,0,0-57.35-57.35Z"/><circle cx="412.76" cy="498.86" r="37.89"/><path class="cls-2" d="M343.08,174.24c-2.28-3.8-69.71,23.83-138.9,114.55-3.51,4.6.17,7.06,1.52,8.12s35.57-40.34,53.25-57.06C324.58,177.78,344.57,176.72,343.08,174.24Z"/><path class="cls-2" d="M278.58,302S130.16,454.79,207.35,541.63c-13.12-35.89-13.17-83.68,2.32-120C238.62,353.67,278.58,302,278.58,302Z"/><path class="cls-2" d="M217.36,581.22a374.71,374.71,0,0,1-30.6,31.56c-8.56,7.75-12.24,16.75-8.37,21.58,11.45-7.87,13.69-9.22,20.63-17.68C217.94,593.63,217.36,581.22,217.36,581.22Z"/><path class="cls-2" d="M271.36,469.57s-27.66,2.93-29.29,29.29Z"/><path class="cls-2" d="M414.06,469.57s-27.66,2.93-29.29,29.29Z"/></svg>