<svg xmlns="http://www.w3.org/2000/svg" viewBox="0 0 2245.39 919.86"><defs><style>.cls-1{fill:#fff;}</style></defs><g id="Layer_4" data-name="Layer 4"><path d="M710.23,560.28q-36.43-36-36.43-103t35.84-103q35.83-36,102.43-36a210.44,210.44,0,0,1,49.35,5.48q22.71,5.49,38.39,15.67c2.34,1.57,3.52,3.27,3.52,5.09a10.75,10.75,0,0,1-2,5.49l-11,18.8c-1.56,2.35-3,3.52-4.3,3.52q-1.58,0-5.49-2-24.68-14.88-63.06-14.88-44.26,0-69.33,25.46t-25.07,76.38q0,51.71,25.85,77t69.73,25.26q40.72,0,67-15.28c2.61-1.3,4.31-2,5.1-2q2.34,0,4.7,3.53l12.14,20.37a9.23,9.23,0,0,1,1.17,3.92q0,2.34-4.3,5.09-30.18,21.15-91.27,21.15Q746.66,596.32,710.23,560.28Z"/><path d="M936.31,573q-22.72-23.29-22.72-65.61,0-32.89,14.49-58.16t41.32-39q26.83-13.71,62.48-13.71,49.74,0,84.21,23.5V579.87c0,3.91-.85,6.66-2.55,8.22s-4.63,2.35-8.81,2.35h-21.54c-2.88,0-5-.58-6.46-1.76a9.44,9.44,0,0,1-2.94-5.68l-3.14-15.28a70.73,70.73,0,0,1-30,21.74q-17.82,6.85-43.28,6.86Q959,596.32,936.31,573Zm116.52-24.48q15.87-12.13,15.87-32.12V440a64.55,64.55,0,0,0-16.65-6.07,102.62,102.62,0,0,0-20.56-1.76q-31,0-49.75,19.58t-18.8,54.06q0,28.2,13.12,41.52t40.15,13.31A58.54,58.54,0,0,0,1052.83,548.53Z"/><path d="M1149.07,586.92q-3.33-3.52-3.33-10.58V338.59q0-7.44,3.33-11t11.16-3.53H1181q7.83,0,11.36,3.53t3.52,11V576.34q0,7-3.32,10.58T1181,590.44h-20.76Q1152.39,590.44,1149.07,586.92Z"/><path d="M1239.62,573q-22.72-23.29-22.72-65.61,0-32.89,14.49-58.16t41.33-39q26.82-13.71,62.47-13.71,49.74,0,84.22,23.5V579.87c0,3.91-.85,6.66-2.55,8.22s-4.64,2.35-8.81,2.35H1386.5c-2.87,0-5-.58-6.46-1.76a9.44,9.44,0,0,1-2.94-5.68L1374,567.72a70.79,70.79,0,0,1-30,21.74q-17.84,6.85-43.29,6.86Q1262.34,596.32,1239.62,573Zm116.53-24.48Q1372,536.4,1372,516.41V440a64.29,64.29,0,0,0-16.65-6.07,102.55,102.55,0,0,0-20.56-1.76q-30.94,0-49.74,19.58t-18.8,54.06q0,28.2,13.12,41.52t40.14,13.31A58.59,58.59,0,0,0,1356.15,548.53Z"/><path d="M1452.58,586.92q-3.52-3.52-3.53-10.58V413q0-5.88,2-8.23t8.23-2.35H1480c2.87,0,5,.59,6.26,1.76s2.09,3.2,2.35,6.08l1.18,16.45a82.35,82.35,0,0,1,26-22.33q14.69-7.83,35.05-7.83,17.23,0,30,7.63t18.6,22.53q21.54-30.17,62.28-30.16,27.81,0,44.07,16.84t16.25,50.14v112.8q0,7-3.33,10.58t-11.55,3.52h-17.24q-7.83,0-11.36-3.52t-3.52-10.58V466.28q0-18-7.64-25.85t-22.91-7.84q-16.07,0-26,10.58t-10,28.59V576.34q0,7-3.52,10.58t-11.36,3.52h-16.06q-7.85,0-11.36-3.52t-3.53-10.58v-112q0-16.45-6.85-24.09t-21.74-7.64q-16.85,0-27.42,11.16t-10.57,29.19v103.4c0,4.7-1.12,8.23-3.33,10.58s-6.07,3.52-11.56,3.52h-17.23Q1456.1,590.44,1452.58,586.92Z"/><path d="M1764.48,573q-22.73-23.29-22.72-65.61,0-32.89,14.5-58.16t41.32-39q26.82-13.71,62.47-13.71,49.74,0,84.22,23.5V579.87c0,3.91-.85,6.66-2.55,8.22s-4.64,2.35-8.81,2.35h-21.55c-2.87,0-5-.58-6.46-1.76A9.44,9.44,0,0,1,1902,583l-3.13-15.28a70.79,70.79,0,0,1-30,21.74q-17.83,6.85-43.29,6.86Q1787.2,596.32,1764.48,573ZM1881,548.53q15.85-12.13,15.86-32.12V440a64.35,64.35,0,0,0-16.64-6.07,102.73,102.73,0,0,0-20.57-1.76q-30.95,0-49.74,19.58t-18.8,54.06q0,28.2,13.12,41.52t40.15,13.31A58.58,58.58,0,0,0,1881,548.53Z"/><path d="M1977.44,586.92q-3.53-3.52-3.53-10.58V413q0-5.88,2-8.23t8.23-2.35h22.32q4.3,0,6.27,1.76c1.3,1.18,2.09,3.2,2.35,6.08l1.18,14.1q23.1-27.81,60.71-27.81,17.22,0,26.24,5.87a6.92,6.92,0,0,1,2.94,3.33,6.47,6.47,0,0,1-.2,4.11l-7,23.51q-1.17,3.92-4.31,3.91l-3.13-.78a51.23,51.23,0,0,0-21.54-4.31q-20,0-32.9,11.16t-12.93,30.36V576.34q0,7-3.33,10.58t-11.56,3.52H1988.8Q1981,590.44,1977.44,586.92Z"/><path d="M550.5,646.77c-1.37-17.35-12.65-35-31.76-49.77-6.83-5.27-11.15-9.2-11.52-12.48-.54-4.69,6-13.39,11.73-20.44,23.32-28.61,28.12-65.64,14.25-110-11.3-36.16-32.55-69.88-46.61-92.19l-3.91-6.23c2.41-1.89,5.14-3.89,8-5.95,13.77-10.09,29.38-21.52,31.28-36,.83-6.38-1.08-12.52-5.7-18.25C433.32,192.63,377.44,173.38,351.5,171.05l-.7-.06-.7.06c-25.93,2.33-81.82,21.58-164.72,124.39-4.61,5.73-6.53,11.87-5.7,18.25,1.9,14.47,17.51,25.9,31.29,36,2.82,2.06,5.54,4.06,7.95,5.95-1.23,2-2.55,4.07-3.91,6.23-14.06,22.31-35.31,56-46.61,92.19-13.87,44.39-9.07,81.42,14.25,110,5.75,7,12.28,15.75,11.73,20.44-.37,3.28-4.69,7.21-11.52,12.48-19.11,14.75-30.39,32.42-31.76,49.77-.9,11.31,2.57,21.49,10,29.42,9.59,10.18,21.42,15.64,34.19,15.78,16.38.19,33.61-8.19,51.33-24.9-14.7,26.13-6,52.35,11.84,66.19C275,746,301.18,748.87,319.68,725c12.61-16.3,19.45-37.23,24.44-52.51,2-6.14,4.6-14.08,6.68-18,2.08,3.88,4.67,11.82,6.68,18,5,15.28,11.83,36.21,24.45,52.51,9.94,12.85,22.11,18,33.8,18a45.33,45.33,0,0,0,27.38-9.68c17.89-13.84,26.53-40.06,11.83-66.19,17.53,16.53,34.6,24.9,50.81,24.9h.52c12.78-.14,24.6-5.6,34.19-15.78C547.93,668.26,551.4,658.08,550.5,646.77Zm-79.63-.67c-44.2-45.79-74.87-22.89-43.81,24.49,27.79,42.4-19.31,70.19-40.65,16.91-13.91-34.72-13.94-66.32-35.65-66.49C329,621.18,329,652.78,315.1,687.5c-21.33,53.28-68.44,25.49-40.65-16.91,31.07-47.38.4-70.28-43.8-24.49-41.81,43.31-69.53-.3-41.69-22.92,26.94-21.89,42.34-37.4,18.27-66.28C135.45,470.76,268.5,328,293.09,301.42c-13.77,3.93-47.75,30.29-54.64,38.27-10.71-8.35-43.43-23-33.81-35.48C287.5,196.41,350.76,186,350.76,186S414,196.41,496.88,304.21c9.62,12.51-23.1,27.13-33.82,35.48-6.88-8-40.87-34.34-54.63-38.27C433,328,566.07,470.76,494.28,556.9c-24.06,28.88-8.67,44.39,18.27,66.28C540.4,645.8,512.68,689.41,470.87,646.1Z"/><path class="cls-1" d="M280.67,564.83A51.35,51.35,0,1,1,332,513.48,51.41,51.41,0,0,1,280.67,564.83Z"/><path d="M280.67,468.13a45.35,45.35,0,1,1-45.36,45.35,45.41,45.41,0,0,1,45.36-45.35m0-12A57.35,57.35,0,1,0,338,513.48a57.36,57.36,0,0,0-57.35-57.35Z"/><circle cx="280.67" cy="513.48" r="37.89"/><path class="cls-1" d="M420.94,564.83a51.35,51.35,0,1,1,51.35-51.35A51.41,51.41,0,0,1,420.94,564.83Z"/><path d="M420.94,468.13a45.35,45.35,0,1,1-45.36,45.35,45.41,45.41,0,0,1,45.36-45.35m0-12a57.35,57.35,0,1,0,57.35,57.35,57.36,57.36,0,0,0-57.35-57.35Z"/><circle cx="420.94" cy="513.48" r="37.89"/><path class="cls-1" d="M279.54,484.2s-27.66,2.92-29.29,29.28Z"/><path class="cls-1" d="M422.24,484.2s-27.66,2.92-29.29,29.28Z"/></g></svg>