<svg xmlns="http://www.w3.org/2000/svg" viewBox="0 0 681.51 919.86"><defs><style>.cls-1{fill:#fff;}</style></defs><g id="Layer_3" data-name="Layer 3"><path d="M544.81,633.84c-1.37-17.34-12.65-35-31.76-49.76-6.83-5.28-11.15-9.21-11.52-12.48-.55-4.7,6-13.39,11.73-20.44,23.32-28.62,28.12-65.64,14.25-110C516.21,405,495,371.24,480.9,348.93c-1.36-2.16-2.68-4.25-3.91-6.23,2.41-1.89,5.13-3.88,7.95-5.95,13.78-10.08,29.39-21.51,31.29-36,.83-6.38-1.09-12.52-5.7-18.25-82.9-102.82-138.79-122.07-164.72-124.4l-.7-.06-.7.06c-25.94,2.33-81.82,21.58-164.72,124.4-4.62,5.73-6.53,11.87-5.7,18.25,1.9,14.47,17.51,25.9,31.28,36,2.82,2.07,5.55,4.06,8,5.95l-3.91,6.23c-14.06,22.31-35.31,56-46.61,92.19-13.87,44.4-9.07,81.42,14.25,110,5.75,7.05,12.27,15.74,11.73,20.44-.37,3.27-4.69,7.2-11.52,12.48-19.11,14.74-30.39,32.42-31.76,49.76-.9,11.32,2.57,21.49,10,29.42,9.59,10.19,21.41,15.64,34.19,15.79,16.38.18,33.61-8.2,51.33-24.91-14.7,26.14-6.06,52.35,11.83,66.19C269.3,733.1,295.48,736,314,712.05c12.62-16.3,19.46-37.22,24.45-52.5,2-6.14,4.6-14.08,6.68-18,2.08,3.89,4.67,11.83,6.68,18,5,15.28,11.83,36.2,24.44,52.5,9.95,12.85,22.12,18,33.81,18a45.28,45.28,0,0,0,27.37-9.68c17.89-13.84,26.54-40.05,11.84-66.19,17.53,16.54,34.6,24.91,50.81,24.91h.52c12.77-.15,24.6-5.6,34.19-15.79C542.24,655.33,545.71,645.16,544.81,633.84Zm-79.63-.67c-44.2-45.78-74.87-22.89-43.81,24.5,27.79,42.39-19.31,70.18-40.65,16.9-13.91-34.72-13.94-66.32-35.66-66.49-21.71.17-21.74,31.77-35.65,66.49-21.34,53.28-68.44,25.49-40.65-16.9,31.06-47.39.39-70.28-43.81-24.5-41.81,43.32-69.53-.29-41.68-22.91,26.94-21.9,42.34-37.4,18.27-66.28C129.76,457.84,262.81,315,287.4,288.49c-13.77,3.94-47.76,30.29-54.64,38.28-10.72-8.35-43.44-23-33.82-35.49C281.81,183.48,345.06,173,345.06,173s63.26,10.44,146.13,118.24c9.61,12.52-23.1,27.14-33.82,35.49-6.88-8-40.87-34.34-54.64-38.28C427.32,315,560.37,457.84,488.59,544c-24.07,28.88-8.67,44.38,18.27,66.28C534.71,632.88,507,676.49,465.18,633.17Z"/><circle class="cls-1" cx="274.97" cy="500.56" r="51.35"/><path d="M275,455.2a45.36,45.36,0,1,1-45.35,45.36A45.41,45.41,0,0,1,275,455.2m0-12a57.36,57.36,0,1,0,57.36,57.36A57.36,57.36,0,0,0,275,443.2Z"/><circle cx="274.97" cy="500.56" r="37.89"/><circle class="cls-1" cx="415.24" cy="500.56" r="51.35"/><path d="M415.24,455.2a45.36,45.36,0,1,1-45.35,45.36,45.41,45.41,0,0,1,45.35-45.36m0-12a57.36,57.36,0,1,0,57.36,57.36,57.36,57.36,0,0,0-57.36-57.36Z"/><circle cx="415.24" cy="500.56" r="37.89"/><path class="cls-1" d="M273.85,471.27s-27.66,2.93-29.29,29.29Z"/><path class="cls-1" d="M416.55,471.27s-27.66,2.93-29.29,29.29Z"/></g></svg>