<svg xmlns="http://www.w3.org/2000/svg" viewBox="0 0 1432.85 1243"><defs><style>.cls-1{fill:#ff5567;}.cls-2{fill:#fff;}</style></defs><g id="Layer_5" data-name="Layer 5"><path d="M915.63,657.15c-1.36-17.2-12.57-34.75-31.57-49.41-6.94-5.35-11.32-9.37-11.71-12.82-.45-3.85,3.09-10.08,11.84-20.81,23.21-28.48,28-65.34,14.16-109.57-11.28-36.09-32.51-69.78-46.55-92.07-1.45-2.3-2.85-4.52-4.16-6.62,2.51-2,5.36-4.06,8.33-6.23,13.69-10,29.21-21.39,31.08-35.65.81-6.24-1.07-12.25-5.6-17.87C798.68,203.43,742.94,184.21,717.08,181.89l-.65-.06-.66.06c-25.86,2.32-81.59,21.54-164.37,124.21-4.53,5.62-6.41,11.63-5.6,17.87,1.87,14.26,17.39,25.62,31.09,35.65,3,2.17,5.81,4.26,8.32,6.23-1.3,2.1-2.7,4.32-4.15,6.62-14,22.29-35.28,56-46.55,92.07-13.82,44.23-9.06,81.09,14.16,109.57,8.74,10.73,12.28,17,11.84,20.81-.4,3.45-4.78,7.47-11.72,12.82-19,14.66-30.21,32.21-31.57,49.41-.88,11.17,2.54,21.21,9.91,29,9.5,10.08,21.2,15.49,33.83,15.63,17.06.19,35.13-9,53.71-27.4-17.2,26.94-8.69,54.52,9.76,68.79a44.76,44.76,0,0,0,27.05,9.57c11.56,0,23.59-5.06,33.43-17.77,12.56-16.22,19.38-37.1,24.36-52.35,2.16-6.59,5-15.22,7.16-18.83,2.18,3.61,5,12.24,7.15,18.83,5,15.25,11.8,36.13,24.37,52.35,18.29,23.63,44.17,20.81,60.48,8.2,18.44-14.27,27-41.85,9.75-68.79,18.59,18.37,36.66,27.6,53.71,27.4,12.64-.14,24.33-5.55,33.83-15.63C913.09,678.36,916.52,668.32,915.63,657.15ZM858.26,319.66c-1,5.23-14.9,13.86-22.39,18.5-2.35,1.45-4.52,2.8-6.46,4.07-11.69-10.87-40.26-32.4-53.67-36.23l-20.62-5.9,15,16.16c12.74,13.75,51.5,55.6,78.24,104.55,33.07,60.53,35.43,108.51,7,142.6-9.89,11.86-14.21,22.61-13.21,32.85,1.53,15.76,14.94,27.81,32.31,41.92,6.86,5.58,10.11,13.09,8.7,20.09a12.58,12.58,0,0,1-8.88,10c-4.21,1.23-15.89,2.13-33.41-16-23.1-23.94-46.35-32.75-59.24-22.46-9.38,7.49-12.71,25.72,6.1,54.41,11.5,17.54,6.91,28.19,5.23,31a11.35,11.35,0,0,1-11,5.83c-3.41-.26-15.26-2.86-24.31-25.48a301,301,0,0,1-9.44-28.75c-6.43-22.19-12-41.35-31.83-41.51-19.75.16-25.31,19.32-31.74,41.51a298.23,298.23,0,0,1-9.44,28.75c-9.05,22.62-20.89,25.22-24.31,25.48a11.38,11.38,0,0,1-11-5.83c-1.68-2.84-6.27-13.49,5.23-31,18.81-28.69,15.49-46.92,6.11-54.41-12.89-10.29-36.15-1.48-59.25,22.46-17.52,18.14-29.2,17.25-33.41,16a12.58,12.58,0,0,1-8.88-10c-1.41-7,1.84-14.51,8.7-20.09,17.37-14.11,30.78-26.16,32.31-41.92,1-10.24-3.32-21-13.21-32.85-28.41-34.09-26-82.07,7-142.6,26.74-48.95,65.5-90.8,78.24-104.55l15-16.16L657.11,306c-13.41,3.83-42,25.36-53.67,36.23-1.94-1.27-4.11-2.62-6.46-4.07-7.49-4.64-21.44-13.27-22.39-18.5-.06-.3-.13-.67.47-1.45,23.11-30.06,59.5-71.39,101.65-97.55,21.52-13.37,35.95-17.34,39.71-18.22,3.8.88,18.22,4.87,39.72,18.22,42.15,26.16,78.54,67.49,101.65,97.55C858.39,319,858.32,319.36,858.26,319.66Z"/><path id="InShape" class="cls-1" d="M878.18,631.51c-26.94-21.89-42.34-37.4-18.27-66.28,71.78-86.14-61.27-228.93-85.86-255.48C787.82,313.68,821.8,340,828.68,348c10.72-8.35,43.44-23,33.82-35.48-82.86-107.8-146.12-118.25-146.12-118.25s-63.25,10.45-146.12,118.25c-9.62,12.51,23.1,27.13,33.82,35.48,6.88-8,40.86-34.34,54.63-38.27-24.59,26.55-157.64,169.34-85.85,255.48,24.06,28.88,8.67,44.39-18.28,66.28-27.84,22.62-.12,66.23,41.69,22.92,44.2-45.79,74.87-22.89,43.81,24.5-27.79,42.39,19.31,70.18,40.65,16.9,13.9-34.72,13.94-66.32,35.65-66.49,21.72.17,21.75,31.77,35.65,66.49,21.34,53.28,68.45,25.49,40.65-16.9-31.06-47.39-.39-70.29,43.81-24.5C878.3,697.74,906,654.13,878.18,631.51Z"/><circle class="cls-2" cx="646.29" cy="523.83" r="57.35"/><path d="M646.29,478.48a45.35,45.35,0,1,1-45.35,45.35,45.4,45.4,0,0,1,45.35-45.35m0-12a57.35,57.35,0,1,0,57.35,57.35,57.35,57.35,0,0,0-57.35-57.35Z"/><circle cx="646.29" cy="523.83" r="37.89"/><circle class="cls-2" cx="786.56" cy="523.83" r="57.35"/><path d="M786.56,478.48a45.35,45.35,0,1,1-45.35,45.35,45.4,45.4,0,0,1,45.35-45.35m0-12a57.35,57.35,0,1,0,57.35,57.35,57.35,57.35,0,0,0-57.35-57.35Z"/><circle cx="786.56" cy="523.83" r="37.89"/><path class="cls-2" d="M716.89,199.21C714.61,195.4,647.17,223,578,313.76c-3.5,4.6.17,7.06,1.52,8.11s35.57-40.33,53.25-57.05C698.38,202.75,718.37,201.68,716.89,199.21Z"/><path class="cls-2" d="M652.38,327S504,479.76,581.16,566.6c-13.13-35.89-13.18-83.69,2.31-120C612.42,378.64,652.38,327,652.38,327Z"/><path class="cls-2" d="M591.16,606.19a373.64,373.64,0,0,1-30.59,31.56c-8.57,7.75-12.24,16.75-8.38,21.58,11.45-7.87,13.7-9.22,20.64-17.68C591.74,618.59,591.16,606.19,591.16,606.19Z"/><path class="cls-2" d="M645.16,494.54s-27.66,2.93-29.28,29.29Z"/><path class="cls-2" d="M787.86,494.54s-27.65,2.93-29.28,29.29Z"/><path d="M260.34,937.32q-24.72-24.45-24.72-69.89t24.32-69.9q24.32-24.45,69.49-24.45a142.61,142.61,0,0,1,33.49,3.72q15.4,3.74,26,10.63c1.6,1.07,2.39,2.22,2.39,3.46a7.36,7.36,0,0,1-1.32,3.72l-7.45,12.75c-1.06,1.6-2,2.4-2.92,2.4a10.26,10.26,0,0,1-3.72-1.33q-16.74-10.09-42.79-10.1-30,0-47,17.27t-17,51.83q0,35.07,17.54,52.22T334,936.79q27.63,0,45.44-10.37a11.17,11.17,0,0,1,3.46-1.33c1.06,0,2.13.8,3.19,2.4l8.24,13.82a6.26,6.26,0,0,1,.79,2.65q0,1.6-2.92,3.46-20.46,14.36-61.92,14.35Q285.05,961.77,260.34,937.32Z"/><path d="M413.73,946q-15.42-15.81-15.42-44.52,0-22.32,9.84-39.46a66.26,66.26,0,0,1,28-26.44q18.21-9.3,42.39-9.31,33.75,0,57.14,15.95V950.61q0,4-1.73,5.58t-6,1.59H513.39a6.79,6.79,0,0,1-4.39-1.19,6.41,6.41,0,0,1-2-3.86l-2.13-10.36a48.12,48.12,0,0,1-20.33,14.75q-12.09,4.65-29.36,4.65Q429.14,961.77,413.73,946Zm79.06-16.61a26.09,26.09,0,0,0,10.76-21.79V855.73a43.89,43.89,0,0,0-11.29-4.12,69.92,69.92,0,0,0-13.95-1.19q-21,0-33.75,13.29T431.8,900.38q0,19.14,8.9,28.17t27.24,9A39.78,39.78,0,0,0,492.79,929.35Z"/><path d="M558.08,955.39c-1.5-1.59-2.26-4-2.26-7.17V786.9c0-3.36.76-5.84,2.26-7.44s4-2.39,7.58-2.39h14.08c3.54,0,6.12.8,7.71,2.39s2.39,4.08,2.39,7.44V948.22q0,4.78-2.26,7.17c-1.5,1.6-4.12,2.39-7.84,2.39H565.66C562.11,957.78,559.59,957,558.08,955.39Z"/><path d="M619.52,946q-15.4-15.81-15.41-44.52,0-22.32,9.83-39.46a66.29,66.29,0,0,1,28-26.44q18.19-9.3,42.39-9.31,33.75,0,57.14,15.95V950.61q0,4-1.73,5.58t-6,1.59H719.18a6.77,6.77,0,0,1-4.38-1.19,6.42,6.42,0,0,1-2-3.86l-2.12-10.36a48.18,48.18,0,0,1-20.33,14.75q-12.11,4.65-29.37,4.65Q634.94,961.77,619.52,946Zm79.07-16.61a26.12,26.12,0,0,0,10.76-21.79V855.73a44,44,0,0,0-11.3-4.12,69.92,69.92,0,0,0-13.95-1.19q-21,0-33.75,13.29T637.6,900.38q0,19.14,8.9,28.17t27.24,9A39.78,39.78,0,0,0,698.59,929.35Z"/><path d="M764,955.39q-2.38-2.39-2.39-7.17V837.4q0-4,1.33-5.58t5.58-1.6h14.09a6.25,6.25,0,0,1,4.25,1.2,6.16,6.16,0,0,1,1.59,4.12l.8,11.16a55.94,55.94,0,0,1,17.67-15.15q10-5.31,23.79-5.32,11.68,0,20.33,5.19a30.06,30.06,0,0,1,12.62,15.28q14.61-20.46,42.26-20.47,18.87,0,29.9,11.43t11,34v76.54q0,4.78-2.25,7.17c-1.51,1.6-4.12,2.39-7.84,2.39h-11.7c-3.54,0-6.11-.79-7.7-2.39s-2.4-4-2.4-7.17V873.54q0-12.22-5.18-17.54t-15.55-5.32q-10.89,0-17.67,7.18t-6.78,19.4v71c0,3.19-.79,5.58-2.39,7.17s-4.16,2.39-7.7,2.39h-10.9c-3.55,0-6.11-.79-7.71-2.39s-2.39-4-2.39-7.17v-76q0-11.16-4.65-16.34t-14.75-5.19q-11.43,0-18.6,7.58t-7.18,19.8v70.16q0,4.78-2.26,7.17c-1.5,1.6-4.12,2.39-7.84,2.39H771.72C768.17,957.78,765.61,957,764,955.39Z"/><path d="M975.64,946q-15.42-15.81-15.42-44.52,0-22.32,9.83-39.46a66.29,66.29,0,0,1,28-26.44q18.21-9.3,42.39-9.31,33.75,0,57.14,15.95V950.61q0,4-1.73,5.58c-1.15,1.06-3.15,1.59-6,1.59h-14.62a6.77,6.77,0,0,1-4.38-1.19,6.36,6.36,0,0,1-2-3.86l-2.13-10.36a48.12,48.12,0,0,1-20.33,14.75q-12.09,4.65-29.37,4.65Q991.05,961.77,975.64,946Zm79.06-16.61a26.12,26.12,0,0,0,10.76-21.79V855.73a44,44,0,0,0-11.29-4.12,70,70,0,0,0-14-1.19q-21,0-33.75,13.29t-12.75,36.67q0,19.14,8.9,28.17t27.24,9A39.78,39.78,0,0,0,1054.7,929.35Z"/><path d="M1120.12,955.39q-2.38-2.39-2.39-7.17V837.4q0-4,1.33-5.58t5.58-1.6h15.15a6.24,6.24,0,0,1,4.25,1.2,6.11,6.11,0,0,1,1.6,4.12l.8,9.56q15.68-18.87,41.19-18.87,11.68,0,17.8,4a4.67,4.67,0,0,1,2,2.26,4.38,4.38,0,0,1-.14,2.79l-4.78,16c-.53,1.77-1.51,2.65-2.92,2.65l-2.13-.53a34.72,34.72,0,0,0-14.62-2.92q-13.54,0-22.32,7.57t-8.77,20.6v69.63c0,3.19-.76,5.58-2.26,7.17s-4.12,2.39-7.84,2.39h-13.82C1124.29,957.78,1121.72,957,1120.12,955.39Z"/></g></svg>