<?xml version="1.0" encoding="UTF-8"?>
<!-- Generator: Adobe Illustrator 26.3.1, SVG Export Plug-In . SVG Version: 6.00 Build 0)  -->
<svg width="1512" height="540" version="1.1" viewBox="0 0 1512 540" xml:space="preserve" xmlns="http://www.w3.org/2000/svg">
<style type="text/css">
	.st0{clip-path:url(#SVGID_00000131337581743546924740000015761667356397278850_);}
	.st1{fill:#DEF9FB;}
	.st2{clip-path:url(#SVGID_00000161605147239233637210000001310094324039202978_);}
	.st3{fill:none;stroke:#9AF0F7;stroke-width:17;}
</style>

	
		<rect class="st1" y="326" width="1512" height="447"/>
			
				<circle class="st1" cx="100" cy="374" r="136"/>
				<circle class="st1" cx="214" cy="483" r="136"/>
				<circle class="st1" cx="583" cy="492" r="136"/>
				<circle class="st1" cx="782" cy="431" r="136"/>
				<circle class="st1" cx="903" cy="534" r="136"/>
				<circle class="st1" cx="1233" cy="431" r="136"/>
				<circle class="st1" cx="1410" cy="374" r="136"/>
				<circle class="st1" cx="1202" cy="255" r="72"/>
				<circle class="st1" cx="1058" cy="438" r="72"/>
				<circle class="st1" cx="846" cy="294" r="72"/>
				<circle class="st1" cx="516" cy="359" r="72"/>
				<circle class="st1" cx="288" cy="359" r="72"/>
				<circle class="st1" cy="271" r="72"/>
				<circle class="st1" cx="1512" cy="271" r="72"/>
				<circle class="st3" cx="117" cy="239" r="63.5"/>
				<circle class="st3" cx="342" cy="428" r="63.5"/>
				<circle class="st3" cx="643" cy="347" r="63.5"/>
				<circle class="st3" cx="1024" cy="374" r="63.5"/>
				<circle class="st3" cx="1297" cy="284" r="63.5"/>
				<circle class="st3" cx="1399" cy="110" r="32.5"/>
				<circle class="st3" cx="1065" cy="176" r="32.5"/>
				<circle class="st3" cx="715" cy="224" r="32.5"/>
				<circle class="st3" cx="442" cy="336" r="32.5"/>
				<circle class="st3" cx="301" cy="167" r="32.5"/>
			

	

</svg>
