<?xml version="1.0" encoding="UTF-8"?>
<svg width="54" height="54" fill="none" version="1.1" viewBox="0 0 54 54" xmlns="http://www.w3.org/2000/svg">
 <g transform="translate(4.5 4.5)" clip-rule="evenodd" fill="#0DBD8B" fill-rule="evenodd">
  <path d="m16.201 2.7c0-1.4912 1.2088-2.7 2.7-2.7 9.9412 0 18 8.0589 18 18 0 1.4912-1.2088 2.7-2.7 2.7-1.4912 0-2.7-1.2088-2.7-2.7 0-6.9588-5.6412-12.6-12.6-12.6-1.4912 0-2.7-1.2088-2.7-2.7z" style="fill:#000;stroke-width:.83333"/>
  <path d="m28.799 42.3c0 1.4912-1.2088 2.7-2.7 2.7-9.9411 0-18-8.0588-18-18 0-1.4912 1.2088-2.7 2.7-2.7 1.4912 0 2.7 1.2088 2.7 2.7 0 6.9588 5.6412 12.6 12.6 12.6 1.4912 0 2.7 1.2088 2.7 2.7z" style="fill:#000;stroke-width:.83333"/>
  <path d="m2.7 28.8c-1.4912 0-2.7-1.2088-2.7-2.7-4.3454e-7 -9.9412 8.0589-18 18-18 1.4912 0 2.7 1.2089 2.7 2.7 0 1.4912-1.2088 2.7-2.7 2.7-6.9588 0-12.6 5.6412-12.6 12.6 0 1.4912-1.2088 2.7-2.7 2.7z" style="fill:#000;stroke-width:.83333"/>
  <path d="m42.3 16.2c1.4912 0 2.7 1.2088 2.7 2.7 0 9.9412-8.0588 18-18 18-1.4912 0-2.7-1.2088-2.7-2.7 0-1.4912 1.2088-2.7 2.7-2.7 6.9588 0 12.6-5.6412 12.6-12.6 0-1.4912 1.2088-2.7 2.7-2.7z" style="fill:#000;stroke-width:.83333"/>
 </g>
</svg>
