<?xml version="1.0" encoding="UTF-8"?>
<!-- Generator: Adobe Illustrator 26.3.1, SVG Export Plug-In . SVG Version: 6.00 Build 0)  -->
<svg width="1512" height="491" version="1.1" viewBox="0 0 1512 491" xml:space="preserve" xmlns="http://www.w3.org/2000/svg" xmlns:xlink="http://www.w3.org/1999/xlink">
<style type="text/css">
	.st0{clip-path:url(#SVGID_00000129926799385649606890000014501382963059583923_);}
	.st1{opacity:0.3;}
	.st2{fill:#9AF0F7;}
	.st3{fill:none;stroke:#7ACBDD;stroke-width:17;}
</style>


		<g class="st1">
			<circle class="st2" cx="1443" cy="374" r="136"/>
			<circle class="st2" cx="1329" cy="483" r="136"/>
			<circle class="st2" cx="960" cy="492" r="136"/>
			<circle class="st2" cx="761" cy="431" r="136"/>
			<circle class="st2" cx="640" cy="534" r="136"/>
			<circle class="st2" cx="310" cy="431" r="136"/>
			<circle class="st2" cx="133" cy="374" r="136"/>
			<circle class="st2" cx="69" cy="223" r="72"/>
			<circle class="st2" cx="341" cy="255" r="72"/>
			<circle class="st2" cx="485" cy="438" r="72"/>
			<circle class="st2" cx="697" cy="294" r="72"/>
			<circle class="st2" cx="1027" cy="359" r="72"/>
			<circle class="st2" cx="1255" cy="359" r="72"/>
			<circle class="st2" cx="1529" cy="223" r="72"/>
			<circle class="st3" cx="1426" cy="215" r="63.5"/>
			<circle class="st3" cx="1201" cy="428" r="63.5"/>
			<circle class="st3" cx="900" cy="347" r="63.5"/>
			<circle class="st3" cx="551" cy="350" r="63.5"/>
			<circle class="st3" cx="246" cy="284" r="63.5"/>
			<circle class="st3" cx="56" cy="139" r="63.5"/>
			<circle class="st3" cx="265" cy="123" r="32.5"/>
			<circle class="st3" cx="478" cy="224" r="32.5"/>
			<circle class="st3" cx="828" cy="224" r="32.5"/>
			<circle class="st3" cx="1101" cy="336" r="32.5"/>
			<circle class="st3" cx="1242" cy="223" r="32.5"/>
			<circle class="st3" cx="1527" cy="41" r="32.5"/>
		</g>
		<circle class="st2" cx="100" cy="401" r="136"/>
		<circle class="st2" cx="214" cy="510" r="136"/>
		<circle class="st2" cx="583" cy="519" r="136"/>
		<circle class="st2" cx="782" cy="458" r="136"/>
		<circle class="st2" cx="903" cy="561" r="136"/>
		<circle class="st2" cx="1233" cy="458" r="136"/>
		<circle class="st2" cx="1410" cy="401" r="136"/>
		<circle class="st2" cx="1474" cy="250" r="72"/>
		<circle class="st2" cx="1202" cy="282" r="72"/>
		<circle class="st2" cx="1058" cy="465" r="72"/>
		<circle class="st2" cx="846" cy="321" r="72"/>

		<circle class="st2" cx="328" cy="406" r="72"/>
		<circle class="st2" cx="14" cy="250" r="72"/>
		<circle class="st3" cx="117" cy="242" r="63.5"/>
		<circle class="st3" cx="262" cy="395" r="63.5"/>
		<circle class="st3" cx="643" cy="374" r="63.5"/>
		<circle class="st3" cx="1024" cy="401" r="63.5"/>
		<circle class="st3" cx="1297" cy="311" r="63.5"/>
		<circle class="st3" cx="1487" cy="166" r="63.5"/>
		<circle class="st3" cx="1278" cy="150" r="32.5"/>
		<circle class="st3" cx="1065" cy="251" r="32.5"/>
		<circle class="st3" cx="715" cy="251" r="32.5"/>
		<circle class="st3" cx="442" cy="363" r="32.5"/>
		<circle class="st3" cx="301" cy="250" r="32.5"/>
		<circle class="st3" cx="16" cy="68" r="32.5"/>
	<circle class="st2" cx="1136.3" cy="619.33" r="136"/><circle class="st2" cx="1366.8" cy="609.37" r="136"/><circle class="st2" cx="1531.8" cy="568.11" r="136"/><circle class="st2" cx="-.40297" cy="583.76" r="136"/><circle class="st2" cx="403" cy="559" r="136"/>

</svg>
