<svg xmlns="http://www.w3.org/2000/svg" viewBox="0 0 2249.76 919.86"><defs><style>.cls-1{fill:#ff5567;}.cls-2{fill:#fff;}</style></defs><g id="Layer_2" data-name="Layer 2"><path d="M540,636.6c-1.36-17.2-12.57-34.75-31.56-49.41-6.95-5.36-11.33-9.37-11.72-12.82-.45-3.86,3.09-10.08,11.84-20.81,23.21-28.48,28-65.34,14.16-109.57-11.28-36.09-32.51-69.78-46.55-92.07-1.45-2.3-2.85-4.52-4.16-6.62,2.51-2,5.36-4.06,8.33-6.23,13.69-10,29.21-21.39,31.08-35.65.82-6.24-1.07-12.25-5.6-17.87C423,182.88,367.27,163.66,341.41,161.34l-.65-.06-.66.06c-25.86,2.32-81.59,21.54-164.37,124.21-4.53,5.62-6.41,11.63-5.6,17.87,1.87,14.26,17.39,25.62,31.09,35.65,3,2.17,5.81,4.26,8.32,6.23-1.3,2.09-2.7,4.32-4.15,6.61-14,22.29-35.28,56-46.55,92.07C145,488.21,149.78,525.08,173,553.56c8.74,10.73,12.28,17,11.84,20.81-.4,3.45-4.78,7.46-11.72,12.82-19,14.66-30.2,32.21-31.57,49.41-.88,11.17,2.54,21.21,9.91,29,9.5,10.08,21.2,15.48,33.83,15.62,17.07.2,35.13-9,53.71-27.39-17.2,26.94-8.69,54.51,9.76,68.78a44.7,44.7,0,0,0,27.05,9.57c11.56,0,23.59-5.05,33.43-17.76,12.56-16.23,19.38-37.11,24.36-52.35,2.16-6.59,5-15.22,7.16-18.83,2.18,3.61,5,12.24,7.15,18.83,5,15.24,11.8,36.12,24.37,52.35,18.29,23.63,44.17,20.81,60.48,8.2,18.44-14.28,26.95-41.85,9.76-68.79,18.58,18.37,36.65,27.6,53.7,27.39,12.64-.14,24.34-5.54,33.83-15.62C537.42,657.81,540.85,647.77,540,636.6ZM482.59,299.11c-.95,5.23-14.9,13.86-22.39,18.5-2.35,1.45-4.52,2.79-6.46,4.06-11.69-10.87-40.26-32.4-53.67-36.23l-20.62-5.89,15,16.16c12.74,13.75,51.5,55.6,78.24,104.55,33.07,60.53,35.43,108.5,7,142.59-9.89,11.87-14.21,22.62-13.21,32.86,1.53,15.76,14.94,27.8,32.31,41.92,6.86,5.57,10.11,13.08,8.7,20.09a12.59,12.59,0,0,1-8.88,10c-4.21,1.23-15.89,2.13-33.41-16-23.1-23.93-46.35-32.75-59.24-22.45-9.38,7.49-12.7,25.72,6.1,54.4,11.5,17.55,6.91,28.19,5.23,31a11.36,11.36,0,0,1-11,5.83c-3.41-.26-15.26-2.87-24.31-25.48a302,302,0,0,1-9.44-28.75c-6.43-22.19-12-41.36-31.83-41.51C321,605,315.4,624.12,309,646.31a299.14,299.14,0,0,1-9.44,28.75c-9,22.61-20.89,25.22-24.31,25.48a11.38,11.38,0,0,1-11-5.83c-1.68-2.85-6.27-13.49,5.23-31,18.81-28.68,15.49-46.91,6.11-54.4-12.89-10.3-36.15-1.48-59.25,22.45-17.52,18.15-29.2,17.25-33.41,16a12.59,12.59,0,0,1-8.88-10c-1.41-7,1.84-14.52,8.7-20.09,17.37-14.12,30.78-26.16,32.32-41.92,1-10.24-3.33-21-13.22-32.86-28.41-34.09-26.05-82.06,7-142.59,26.74-48.95,65.5-90.8,78.24-104.55l15-16.16-20.63,5.89c-13.41,3.83-42,25.36-53.67,36.23-1.94-1.27-4.11-2.61-6.46-4.06-7.49-4.64-21.44-13.27-22.39-18.5-.06-.3-.13-.68.47-1.45C222.5,267.6,258.89,226.27,301,200.1c21.52-13.36,35.95-17.34,39.71-18.22,3.8.89,18.22,4.87,39.72,18.22,42.15,26.17,78.54,67.5,101.65,97.56C482.72,298.43,482.65,298.81,482.59,299.11Z"/><path id="InShape" class="cls-1" d="M502.51,611c-26.94-21.89-42.34-37.4-18.27-66.28C556,458.54,423,315.75,398.38,289.2c13.77,3.93,47.75,30.29,54.64,38.27,10.71-8.35,43.43-23,33.81-35.48C404,184.19,340.71,173.74,340.71,173.74S277.46,184.19,194.59,292c-9.62,12.51,23.1,27.13,33.82,35.48,6.88-8,40.86-34.34,54.63-38.27-24.59,26.55-157.64,169.34-85.85,255.48,24.06,28.88,8.67,44.39-18.28,66.28-27.84,22.62-.12,66.23,41.69,22.92,44.2-45.79,74.87-22.89,43.81,24.49-27.79,42.4,19.31,70.19,40.65,16.91C319,640.56,319,609,340.71,608.78c21.72.17,21.75,31.78,35.65,66.5,21.34,53.28,68.45,25.49,40.66-16.91-31.07-47.38-.4-70.28,43.8-24.49C502.63,677.19,530.35,633.58,502.51,611Z"/><circle class="cls-2" cx="270.62" cy="503.27" r="51.35"/><path d="M270.62,457.92a45.36,45.36,0,1,1-45.35,45.35,45.4,45.4,0,0,1,45.35-45.35m0-12A57.36,57.36,0,1,0,328,503.27a57.35,57.35,0,0,0-57.35-57.35Z"/><circle cx="270.62" cy="503.27" r="37.89"/><circle class="cls-2" cx="410.89" cy="503.27" r="51.35"/><path d="M410.89,457.92a45.36,45.36,0,1,1-45.35,45.35,45.4,45.4,0,0,1,45.35-45.35m0-12a57.36,57.36,0,1,0,57.35,57.35,57.35,57.35,0,0,0-57.35-57.35Z"/><circle cx="410.89" cy="503.27" r="37.89"/><path class="cls-2" d="M341.22,178.65c-2.28-3.8-69.72,23.83-138.91,114.56-3.5,4.6.17,7.06,1.52,8.11s35.57-40.33,53.25-57C322.71,182.2,342.7,181.13,341.22,178.65Z"/><path class="cls-2" d="M276.71,306.43S128.29,459.21,205.49,546.05c-13.13-35.89-13.18-83.69,2.31-120C236.75,358.08,276.71,306.43,276.71,306.43Z"/><path class="cls-2" d="M215.49,585.63A372.89,372.89,0,0,1,184.9,617.2c-8.57,7.74-12.24,16.75-8.38,21.58,11.46-7.87,13.7-9.22,20.64-17.68C216.07,598,215.49,585.63,215.49,585.63Z"/><path class="cls-2" d="M269.49,474s-27.66,2.93-29.28,29.28Z"/><path class="cls-2" d="M412.2,474s-27.66,2.93-29.29,29.28Z"/><path d="M700,550q-36.42-36-36.42-103t35.84-103q35.84-36,102.42-36a209.92,209.92,0,0,1,49.36,5.49q22.71,5.49,38.38,15.66,3.52,2.36,3.53,5.1a10.84,10.84,0,0,1-2,5.48l-11,18.8Q877.86,362,875.9,362q-1.56,0-5.48-2-24.67-14.88-63.06-14.89-44.28,0-69.33,25.46T713,447q0,51.71,25.85,77t69.72,25.26q40.74,0,67-15.27,3.91-2,5.09-2,2.35,0,4.7,3.52l12.14,20.37a9.2,9.2,0,0,1,1.18,3.92q0,2.35-4.31,5.09-30.16,21.15-91.26,21.15Q736.45,586.07,700,550Z"/><path d="M926.11,562.77q-22.73-23.31-22.72-65.61,0-32.91,14.5-58.17t41.32-39q26.82-13.71,62.47-13.71,49.74,0,84.22,23.5V569.62q0,5.88-2.55,8.23c-1.7,1.56-4.64,2.35-8.81,2.35H1073c-2.87,0-5-.59-6.46-1.77a9.38,9.38,0,0,1-2.94-5.68l-3.13-15.27a70.87,70.87,0,0,1-30,21.74q-17.84,6.84-43.29,6.85Q948.83,586.07,926.11,562.77Zm116.53-24.48q15.85-12.13,15.86-32.12V429.79a64,64,0,0,0-16.64-6.07,101.92,101.92,0,0,0-20.57-1.77q-30.94,0-49.74,19.59t-18.8,54q0,28.2,13.12,41.52T1006,550.43A58.64,58.64,0,0,0,1042.64,538.29Z"/><path d="M1138.87,576.67q-3.33-3.52-3.33-10.57V328.34q0-7.44,3.33-11t11.17-3.52h20.76q7.83,0,11.35,3.52t3.53,11V566.1q0,7-3.33,10.57t-11.55,3.53H1150Q1142.2,580.2,1138.87,576.67Z"/><path d="M1229.43,562.77q-22.73-23.31-22.72-65.61,0-32.91,14.49-58.17t41.32-39q26.84-13.71,62.48-13.71,49.74,0,84.21,23.5V569.62q0,5.88-2.54,8.23c-1.71,1.56-4.64,2.35-8.82,2.35h-21.54q-4.32,0-6.46-1.77a9.38,9.38,0,0,1-2.94-5.68l-3.13-15.27a70.9,70.9,0,0,1-30,21.74q-17.82,6.84-43.28,6.85Q1252.15,586.07,1229.43,562.77ZM1346,538.29q15.87-12.13,15.87-32.12V429.79a64.18,64.18,0,0,0-16.65-6.07,101.82,101.82,0,0,0-20.56-1.77q-30.94,0-49.75,19.59t-18.8,54q0,28.2,13.12,41.52t40.15,13.32A58.6,58.6,0,0,0,1346,538.29Z"/><path d="M1442.38,576.67q-3.53-3.52-3.52-10.57V402.76q0-5.88,2-8.22t8.22-2.35h20.76c2.87,0,5,.58,6.27,1.76s2.09,3.2,2.35,6.07l1.18,16.45a82.43,82.43,0,0,1,26-22.33q14.7-7.83,35.06-7.83,17.23,0,30,7.64t18.61,22.52q21.54-30.15,62.28-30.16,27.79,0,44.06,16.84t16.26,50.14V566.1c0,4.7-1.12,8.22-3.33,10.57s-6.07,3.53-11.56,3.53h-17.23q-7.85,0-11.36-3.53t-3.53-10.57V456q0-18-7.63-25.85t-22.92-7.83q-16.07,0-26,10.57t-10,28.59V566.1q0,7-3.53,10.57t-11.36,3.53h-16.06q-7.83,0-11.36-3.53t-3.52-10.57v-112q0-16.44-6.86-24.09t-21.73-7.63q-16.84,0-27.42,11.16t-10.58,29.18V566.1q0,7-3.33,10.57T1471,580.2h-17.24Q1445.91,580.2,1442.38,576.67Z"/><path d="M1754.29,562.77q-22.72-23.31-22.72-65.61,0-32.91,14.49-58.17t41.32-39q26.83-13.71,62.48-13.71,49.74,0,84.21,23.5V569.62q0,5.88-2.54,8.23c-1.71,1.56-4.64,2.35-8.82,2.35h-21.54q-4.32,0-6.46-1.77a9.38,9.38,0,0,1-2.94-5.68l-3.13-15.27a70.9,70.9,0,0,1-30,21.74q-17.82,6.84-43.28,6.85Q1777,586.07,1754.29,562.77Zm116.52-24.48q15.87-12.13,15.87-32.12V429.79a64.18,64.18,0,0,0-16.65-6.07,101.82,101.82,0,0,0-20.56-1.77q-30.95,0-49.75,19.59t-18.8,54q0,28.2,13.12,41.52t40.15,13.32A58.6,58.6,0,0,0,1870.81,538.29Z"/><path d="M1967.24,576.67q-3.52-3.52-3.52-10.57V402.76q0-5.88,2-8.22t8.22-2.35h22.33c2.87,0,5,.58,6.27,1.76s2.08,3.2,2.35,6.07l1.17,14.1q23.12-27.81,60.71-27.81,17.23,0,26.25,5.88a6.86,6.86,0,0,1,2.93,3.33,6.4,6.4,0,0,1-.19,4.11l-7,23.5c-.79,2.61-2.22,3.92-4.31,3.92l-3.13-.79a51.28,51.28,0,0,0-21.55-4.31q-20,0-32.9,11.17t-12.92,30.35V566.1c0,4.7-1.12,8.22-3.33,10.57s-6.08,3.53-11.56,3.53H1978.6Q1970.77,580.2,1967.24,576.67Z"/></g></svg>