<?xml version="1.0" encoding="utf-8"?>
<!-- Generator: Adobe Illustrator 26.3.1, SVG Export Plug-In . SVG Version: 6.00 Build 0)  -->
<svg version="1.1" id="Layer_1" xmlns="http://www.w3.org/2000/svg" xmlns:xlink="http://www.w3.org/1999/xlink" x="0px" y="0px"
	 viewBox="0 0 1512 491" style="enable-background:new 0 0 1512 491;" xml:space="preserve">
<style type="text/css">
	.st0{clip-path:url(#SVGID_00000129926799385649606890000014501382963059583923_);}
	.st1{opacity:0.3;}
	.st2{fill:#9AF0F7;}
	.st3{fill:none;stroke:#7ACBDD;stroke-width:17;}
</style>
<g>
	<defs>
		<rect id="SVGID_1_" y="0" width="1512" height="492"/>
	</defs>
	<clipPath id="SVGID_00000083782643916050476850000017294024037711069096_">
		<use xlink:href="#SVGID_1_"  style="overflow:visible;"/>
	</clipPath>
	<g style="clip-path:url(#SVGID_00000083782643916050476850000017294024037711069096_);">
		<g class="st1">
			<circle class="st2" cx="1443" cy="374" r="136"/>
			<circle class="st2" cx="1329" cy="483" r="136"/>
			<circle class="st2" cx="960" cy="492" r="136"/>
			<circle class="st2" cx="761" cy="431" r="136"/>
			<circle class="st2" cx="640" cy="534" r="136"/>
			<circle class="st2" cx="310" cy="431" r="136"/>
			<circle class="st2" cx="133" cy="374" r="136"/>
			<circle class="st2" cx="69" cy="223" r="72"/>
			<circle class="st2" cx="341" cy="255" r="72"/>
			<circle class="st2" cx="485" cy="438" r="72"/>
			<circle class="st2" cx="697" cy="294" r="72"/>
			<circle class="st2" cx="1027" cy="359" r="72"/>
			<circle class="st2" cx="1255" cy="359" r="72"/>
			<circle class="st2" cx="1529" cy="223" r="72"/>
			<circle class="st3" cx="1426" cy="215" r="63.5"/>
			<circle class="st3" cx="1201" cy="428" r="63.5"/>
			<circle class="st3" cx="900" cy="347" r="63.5"/>
			<circle class="st3" cx="551" cy="350" r="63.5"/>
			<circle class="st3" cx="246" cy="284" r="63.5"/>
			<circle class="st3" cx="56" cy="139" r="63.5"/>
			<circle class="st3" cx="265" cy="123" r="32.5"/>
			<circle class="st3" cx="478" cy="224" r="32.5"/>
			<circle class="st3" cx="828" cy="224" r="32.5"/>
			<circle class="st3" cx="1101" cy="336" r="32.5"/>
			<circle class="st3" cx="1242" cy="223" r="32.5"/>
			<circle class="st3" cx="1527" cy="41" r="32.5"/>
		</g>
		<circle class="st2" cx="100" cy="401" r="136"/>
		<circle class="st2" cx="214" cy="510" r="136"/>
		<circle class="st2" cx="583" cy="519" r="136"/>
		<circle class="st2" cx="782" cy="458" r="136"/>
		<circle class="st2" cx="903" cy="561" r="136"/>
		<circle class="st2" cx="1233" cy="458" r="136"/>
		<circle class="st2" cx="1410" cy="401" r="136"/>
		<circle class="st2" cx="1474" cy="250" r="72"/>
		<circle class="st2" cx="1202" cy="282" r="72"/>
		<circle class="st2" cx="1058" cy="465" r="72"/>
		<circle class="st2" cx="846" cy="321" r="72"/>
		<circle class="st2" cx="516" cy="386" r="72"/>
		<circle class="st2" cx="288" cy="386" r="72"/>
		<circle class="st2" cx="14" cy="250" r="72"/>
		<circle class="st3" cx="117" cy="242" r="63.5"/>
		<circle class="st3" cx="342" cy="455" r="63.5"/>
		<circle class="st3" cx="643" cy="374" r="63.5"/>
		<circle class="st3" cx="1024" cy="401" r="63.5"/>
		<circle class="st3" cx="1297" cy="311" r="63.5"/>
		<circle class="st3" cx="1487" cy="166" r="63.5"/>
		<circle class="st3" cx="1278" cy="150" r="32.5"/>
		<circle class="st3" cx="1065" cy="251" r="32.5"/>
		<circle class="st3" cx="715" cy="251" r="32.5"/>
		<circle class="st3" cx="442" cy="363" r="32.5"/>
		<circle class="st3" cx="301" cy="250" r="32.5"/>
		<circle class="st3" cx="16" cy="68" r="32.5"/>
	</g>
</g>
</svg>
